# This file uses centimeters as units for non-parametric coordinates.

mtllib Inside_Bend_LP.mtl
g default
v 0.540214 0.000000 -1.485034
v -0.089169 0.000000 -2.268402
v 0.540214 1.000000 -1.485034
v -0.083869 0.468588 -2.274772
v 1.997587 1.000000 -2.002789
v 1.997587 0.468588 -3.002789
v 1.997587 0.000000 -2.002789
v 1.997587 0.000000 -3.002789
v 0.196737 1.000000 -1.903751
v 1.997587 1.000000 -2.543915
v 1.997587 0.000000 -2.543915
v 0.196737 0.000000 -1.903751
v -0.000732 0.000000 0.002367
v -1.000000 0.000000 -0.000000
v -0.000731 1.000000 0.002367
v -1.000000 0.468588 -0.000000
v -0.552380 1.000000 0.000000
v -0.552381 0.000000 0.000000
v 1.167013 1.000000 -1.878025
v 1.167013 0.000000 -1.878025
v 0.988031 0.000000 -2.401589
v 0.837336 0.000000 -2.846662
v 0.838581 0.468588 -2.847631
v 0.988031 1.000000 -2.401589
v 1.559378 0.000000 -1.972518
v 1.559378 1.000000 -1.972518
v 1.462075 1.000000 -2.510359
v 1.380722 0.468588 -2.967384
v 1.380722 0.000000 -2.967384
v 1.462075 0.000000 -2.510359
v 0.826472 1.000000 -1.715520
v 0.826472 0.000000 -1.715520
v 0.563404 0.000000 -2.197630
v 0.347965 0.000000 -2.614677
v 0.356901 0.468588 -2.623576
v 0.563404 1.000000 -2.197630
v 0.137357 1.000000 -0.837122
v 0.137357 0.000000 -0.837122
v -0.342058 0.000000 -1.074872
v -0.759301 0.000000 -1.269523
v -0.758905 0.468588 -1.270806
v -0.342058 1.000000 -1.074872
v 0.309734 0.000000 -1.190140
v 0.309734 1.000000 -1.190140
v -0.106471 1.000000 -1.527223
v -0.461882 0.468588 -1.818868
v -0.464035 0.000000 -1.815016
v -0.106471 0.000000 -1.527223
v 0.027065 1.000000 -0.435211
v 0.027064 0.000000 -0.435211
v -0.497925 0.000000 -0.557952
v -0.947250 0.000000 -0.649840
v -0.947251 0.468588 -0.649840
v -0.497926 1.000000 -0.557952
v -0.002681 1.000000 -0.219900
v -0.002680 0.000000 -0.219900
v -0.538550 0.000000 -0.281515
v -0.995214 0.000000 -0.326492
v -0.995215 0.468588 -0.326492
v -0.538551 1.000000 -0.281515
v 0.074135 0.000000 -0.641556
v 0.074136 1.000000 -0.641556
v -0.431857 1.000000 -0.823544
v -0.867824 0.468588 -0.966931
v -0.867824 0.000000 -0.966931
v -0.431856 0.000000 -0.823544
v 0.216075 1.000000 -1.020399
v 0.216075 0.000000 -1.020399
v -0.233104 0.000000 -1.309958
v -0.623228 0.000000 -1.553092
v -0.622442 0.468588 -1.555634
v -0.233104 1.000000 -1.309958
v 0.417890 0.000000 -1.345308
v 0.417890 1.000000 -1.345308
v 0.037013 1.000000 -1.725467
v -0.281982 0.468588 -2.058928
v -0.285667 0.000000 -2.053791
v 0.037013 0.000000 -1.725467
v 0.676467 1.000000 -1.608625
v 0.676468 0.000000 -1.608625
v 0.372286 0.000000 -2.061334
v 0.124716 0.000000 -2.458117
v 0.131667 0.468588 -2.465663
v 0.372286 1.000000 -2.061334
v 0.990062 0.000000 -1.805369
v 0.990062 1.000000 -1.805369
v 0.769923 1.000000 -2.312224
v 0.592384 0.468588 -2.750571
v 0.584937 0.000000 -2.743799
v 0.769923 0.000000 -2.312224
v 1.356975 1.000000 -1.933614
v 1.356975 0.000000 -1.933614
v 1.217236 0.000000 -2.466094
v 1.100751 0.000000 -2.919268
v 1.100751 0.468588 -2.919268
v 1.217236 1.000000 -2.466094
v 1.773342 0.000000 -1.995345
v 1.773342 1.000000 -1.995345
v 1.722468 1.000000 -2.535770
v 1.679667 0.468588 -2.994344
v 1.679667 0.000000 -2.994344
v 1.722468 0.000000 -2.535770
vt 0.541594 0.570280
vt 0.669956 0.569312
vt 0.312725 0.961919
vt 0.402743 0.962380
vt 0.951494 0.952296
vt 0.544497 0.955365
vt 0.892592 0.952741
vt 0.236843 0.873126
vt 0.829540 0.568109
vt 0.948591 0.567211
vt 0.889689 0.567655
vt 0.739416 0.568788
vt 0.313578 0.795566
vt 0.237243 0.795175
vt 0.742319 0.953874
vt 0.832444 0.953194
vt 0.672859 0.954397
vt 0.403596 0.796028
vt 0.475037 0.955889
vt 0.472134 0.570804
vt 0.252252 0.018576
vt 0.358049 0.018713
vt 0.357796 0.214224
vt 0.252000 0.214088
vt 0.669956 0.007024
vt 0.739416 0.006500
vt 0.742319 0.391585
vt 0.672859 0.392109
vt 0.544497 0.393077
vt 0.475037 0.393601
vt 0.472134 0.008515
vt 0.541594 0.007992
vt 0.889689 0.005367
vt 0.892592 0.390453
vt 0.832444 0.390906
vt 0.829540 0.005821
vt 0.948591 0.004923
vt 0.951494 0.390008
vt 0.447764 0.018829
vt 0.447646 0.110443
vt 0.671407 0.761855
vt 0.543046 0.762823
vt 0.473586 0.763346
vt 0.950042 0.759754
vt 0.891141 0.760198
vt 0.830992 0.760651
vt 0.740867 0.761331
vt 0.543771 0.859094
vt 0.672133 0.858126
vt 0.741593 0.857602
vt 0.831718 0.856923
vt 0.891866 0.856469
vt 0.474312 0.859617
vt 0.950768 0.856025
vt 0.670682 0.665583
vt 0.542320 0.666551
vt 0.472860 0.667075
vt 0.949317 0.663483
vt 0.890415 0.663927
vt 0.830266 0.664380
vt 0.740141 0.665060
vt 0.671407 0.199567
vt 0.543046 0.200534
vt 0.473586 0.201058
vt 0.950042 0.197466
vt 0.891141 0.197910
vt 0.830992 0.198363
vt 0.740867 0.199043
vt 0.543771 0.296806
vt 0.672133 0.295838
vt 0.741593 0.295314
vt 0.831718 0.294635
vt 0.891866 0.294181
vt 0.474312 0.297329
vt 0.950768 0.293737
vt 0.670682 0.103295
vt 0.542320 0.104263
vt 0.472860 0.104787
vt 0.949317 0.101195
vt 0.890415 0.101639
vt 0.830266 0.102092
vt 0.740141 0.102772
vt 0.670319 0.055160
vt 0.541957 0.056127
vt 0.472497 0.056651
vt 0.948954 0.053059
vt 0.890052 0.053503
vt 0.829903 0.053957
vt 0.739779 0.054636
vt 0.542683 0.152399
vt 0.671044 0.151431
vt 0.740504 0.150907
vt 0.830629 0.150228
vt 0.890778 0.149774
vt 0.473223 0.152922
vt 0.949679 0.149330
vt 0.671770 0.247702
vt 0.543409 0.248670
vt 0.473949 0.249194
vt 0.950405 0.245602
vt 0.891503 0.246046
vt 0.831355 0.246499
vt 0.741230 0.247179
vt 0.544134 0.344941
vt 0.672496 0.343974
vt 0.741956 0.343450
vt 0.832081 0.342770
vt 0.892229 0.342317
vt 0.474674 0.345465
vt 0.951131 0.341873
vt 0.670319 0.617448
vt 0.541957 0.618415
vt 0.472497 0.618939
vt 0.948954 0.615347
vt 0.890052 0.615791
vt 0.829903 0.616245
vt 0.739779 0.616924
vt 0.542683 0.714687
vt 0.671044 0.713719
vt 0.740504 0.713195
vt 0.830629 0.712516
vt 0.890778 0.712062
vt 0.473223 0.715210
vt 0.949679 0.711618
vt 0.671770 0.809990
vt 0.543409 0.810958
vt 0.473949 0.811482
vt 0.950405 0.807890
vt 0.891503 0.808334
vt 0.831355 0.808787
vt 0.741230 0.809467
vt 0.544134 0.907229
vt 0.672496 0.906262
vt 0.741956 0.905738
vt 0.832081 0.905058
vt 0.892229 0.904605
vt 0.474674 0.907753
vt 0.951131 0.904161
vn 0.000000 1.000000 0.000000
vn 0.000000 1.000000 0.000000
vn -0.322836 0.856401 -0.402932
vn -0.331523 0.866984 -0.372062
vn 1.000000 0.000000 0.000000
vn 1.000000 0.000000 0.000000
vn 1.000000 0.000000 0.000000
vn 1.000000 0.000000 0.000000
vn 0.000000 -1.000000 0.000000
vn 0.000000 -1.000000 0.000000
vn 0.000000 -1.000000 0.000000
vn 0.000000 -1.000000 0.000000
vn -0.663288 -0.002442 -0.748360
vn -0.663288 -0.002442 -0.748360
vn -0.620126 -0.003534 -0.784495
vn -0.621351 -0.003503 -0.783525
vn 0.627147 0.000000 0.778901
vn 0.671850 0.000000 0.740687
vn 0.671850 0.000000 0.740687
vn 0.627147 0.000000 0.778901
vn -0.466227 0.659545 -0.589604
vn -0.501673 0.656761 -0.563018
vn 1.000000 0.000000 0.000000
vn 1.000000 0.000000 0.000000
vn 0.000000 -1.000000 0.000000
vn 0.000000 -1.000000 0.000000
vn -0.004290 0.000000 0.999991
vn -0.004290 0.000000 0.999991
vn -0.003390 0.000000 0.999994
vn -0.002688 -0.000000 0.999996
vn 0.000000 1.000000 0.000000
vn 0.000000 1.000000 0.000000
vn -0.514714 0.856144 -0.045678
vn -0.515800 0.856563 -0.015791
vn 0.000000 -1.000000 0.000000
vn 0.000000 -1.000000 0.000000
vn 0.000000 -1.000000 0.000000
vn 0.000000 -1.000000 0.000000
vn -0.999893 -0.000001 -0.014656
vn -0.999893 -0.000001 -0.014656
vn -0.996722 -0.000000 -0.080907
vn -0.996722 -0.000000 -0.080907
vn 0.997989 0.000000 0.063395
vn 0.999962 0.000000 -0.008769
vn 0.999962 0.000000 -0.008769
vn 0.997989 0.000000 0.063395
vn -0.755789 0.651336 -0.067409
vn -0.760934 0.648412 -0.023296
vn 0.000000 -1.000000 0.000000
vn 0.000000 -1.000000 0.000000
vn -0.000000 -0.000000 1.000000
vn -0.000000 -0.000000 1.000000
vn 0.033174 0.000000 0.999450
vn 0.033174 0.000000 0.999450
vn 0.068913 0.000000 0.997623
vn 0.068913 0.000000 0.997623
vn 0.000000 -1.000000 0.000000
vn 0.000000 -1.000000 0.000000
vn 0.000000 -1.000000 0.000000
vn 0.000000 -1.000000 0.000000
vn 0.000000 -1.000000 0.000000
vn 0.000000 -1.000000 0.000000
vn -0.057300 0.000000 -0.998357
vn -0.026553 0.000000 -0.999647
vn -0.026553 0.000000 -0.999647
vn -0.057300 0.000000 -0.998357
vn -0.030096 0.861833 -0.506298
vn -0.014206 0.861334 -0.507841
vn -0.021159 0.653780 -0.756389
vn -0.045502 0.654964 -0.754289
vn 0.000000 1.000000 0.000000
vn 0.000000 1.000000 0.000000
vn 0.234136 0.000000 0.972204
vn 0.329949 0.000000 0.943999
vn 0.329949 0.000000 0.943999
vn 0.234136 0.000000 0.972204
vn 0.000000 1.000000 0.000000
vn 0.000000 1.000000 0.000000
vn -0.110022 0.864541 -0.490372
vn -0.160691 0.864758 -0.475786
vn -0.165217 0.660593 -0.732339
vn -0.239420 0.663092 -0.709216
vn -0.318425 -0.002417 -0.947945
vn -0.216286 -0.000316 -0.976330
vn -0.216286 -0.000316 -0.976330
vn -0.318643 -0.002424 -0.947872
vn 0.000000 -1.000000 0.000000
vn 0.000000 -1.000000 0.000000
vn 0.000000 -1.000000 0.000000
vn 0.000000 -1.000000 0.000000
vn 0.000000 -1.000000 0.000000
vn 0.000000 -1.000000 0.000000
vn 0.430674 0.000000 0.902508
vn 0.430674 0.000000 0.902508
vn 0.000000 -1.000000 0.000000
vn 0.000000 -1.000000 0.000000
vn 0.000000 -1.000000 0.000000
vn -0.424403 -0.005287 -0.905458
vn -0.425767 -0.005315 -0.904817
vn -0.215880 0.863766 -0.455307
vn -0.318373 0.664163 -0.676407
vn 0.000000 1.000000 0.000000
vn 0.752407 0.000000 0.658698
vn 0.752407 0.000000 0.658698
vn 0.787902 -0.000000 0.615800
vn 0.787902 -0.000000 0.615800
vn 0.000000 -1.000000 0.000000
vn 0.000000 -1.000000 0.000000
vn 0.000000 -1.000000 0.000000
vn 0.000000 -1.000000 0.000000
vn 0.000000 -1.000000 0.000000
vn 0.000000 -1.000000 0.000000
vn -0.769971 -0.000995 -0.638078
vn -0.737132 -0.001230 -0.675748
vn -0.737132 -0.001230 -0.675748
vn -0.770516 -0.000991 -0.637421
vn -0.407108 0.851160 -0.331345
vn -0.403969 0.838027 -0.366771
vn -0.560439 0.653450 -0.508833
vn -0.584783 0.653211 -0.480983
vn 0.000000 1.000000 0.000000
vn 0.000000 1.000000 0.000000
vn 0.898595 -0.000000 0.438779
vn 0.936432 -0.000000 0.350849
vn 0.936432 -0.000000 0.350849
vn 0.898595 -0.000000 0.438779
vn 0.000000 1.000000 0.000000
vn 0.000000 1.000000 0.000000
vn -0.463877 0.851062 -0.245990
vn -0.483919 0.852108 -0.199336
vn -0.667739 0.653385 -0.356670
vn -0.699026 0.653869 -0.289515
vn -0.922915 -0.000343 -0.385003
vn -0.879225 -0.000748 -0.476406
vn -0.879393 -0.000747 -0.476095
vn -0.922987 -0.000342 -0.384831
vn 0.000000 -1.000000 0.000000
vn 0.000000 -1.000000 0.000000
vn 0.000000 -1.000000 0.000000
vn 0.000000 -1.000000 0.000000
vn 0.000000 -1.000000 0.000000
vn 0.000000 -1.000000 0.000000
vn 0.964348 -0.000000 0.264636
vn 0.964348 -0.000000 0.264636
vn 0.000000 -1.000000 0.000000
vn 0.000000 -1.000000 0.000000
vn 0.000000 -1.000000 0.000000
vn -0.956951 -0.000032 -0.290248
vn -0.956951 -0.000032 -0.290248
vn -0.499905 0.852823 -0.150955
vn -0.724356 0.653550 -0.219501
vn 0.000000 1.000000 0.000000
vn 0.983808 -0.000000 0.179227
vn 0.983808 -0.000000 0.179227
vn 0.000000 -1.000000 0.000000
vn 0.000000 -1.000000 0.000000
vn 0.000000 -1.000000 0.000000
vn -0.980785 -0.000000 -0.195090
vn -0.980785 -0.000000 -0.195090
vn -0.509543 0.854520 -0.100798
vn -0.742641 0.653334 -0.147102
vn 0.000000 1.000000 0.000000
vn 0.849467 -0.000000 0.527641
vn 0.849467 -0.000000 0.527641
vn 0.000000 -1.000000 0.000000
vn 0.000000 -1.000000 0.000000
vn 0.000000 -1.000000 0.000000
vn -0.828564 -0.000815 -0.559894
vn -0.828883 -0.000816 -0.559422
vn -0.438645 0.850540 -0.290123
vn -0.630263 0.652614 -0.420551
vn 0.000000 1.000000 0.000000
vn 0.531451 0.000000 0.847089
vn 0.531451 0.000000 0.847089
vn 0.000000 -1.000000 0.000000
vn 0.000000 -1.000000 0.000000
vn 0.000000 -1.000000 0.000000
vn -0.525858 -0.005517 -0.850555
vn -0.527484 -0.005488 -0.849547
vn -0.270541 0.860909 -0.430863
vn -0.394845 0.662902 -0.636128
vn 0.000000 1.000000 0.000000
vn 0.146659 0.000000 0.989187
vn 0.146659 0.000000 0.989187
vn 0.000000 -1.000000 0.000000
vn 0.000000 -1.000000 0.000000
vn 0.000000 -1.000000 0.000000
vn -0.128607 0.000000 -0.991696
vn -0.128607 0.000000 -0.991696
vn -0.066497 0.863202 -0.500460
vn -0.100297 0.657586 -0.746674
vn 0.000000 1.000000 0.000000
s 1
g inside_bend
usemtl initialShadingGroup
f 3/2/1 79/111/2 84/117/3 9/12/4
s 2
f 5/4/5 7/18/6 11/13/7 10/3/8
s 3
f 80/112/9 1/1/10 12/20/11 81/113/12
s 4
f 2/11/13 4/9/14 83/116/15 82/115/16
s 5
f 79/111/17 3/2/18 1/1/19 80/112/20
s 1
f 9/12/4 84/117/3 83/116/21 4/9/22
s 2
f 11/13/7 8/14/23 6/8/24 10/3/8
s 3
f 12/10/11 2/11/25 82/115/26 81/114/12
s 6
f 13/21/27 15/24/28 17/23/29 18/22/30
s 7
f 15/25/31 55/83/32 60/89/33 17/26/34
s 8
f 56/84/35 13/32/36 18/31/37 57/85/38
s 9
f 14/33/39 16/36/40 59/88/41 58/87/42
s 10
f 55/83/43 15/25/44 13/32/45 56/84/46
s 7
f 17/26/34 60/89/33 59/88/47 16/36/48
s 8
f 18/37/37 14/33/49 58/87/50 57/86/38
s 6
f 17/23/29 16/40/51 14/39/52 18/22/30
s 5
f 7/6/53 5/17/54 98/133/55 97/132/56
s 3
f 7/6/57 97/132/58 102/137/59 11/19/60
f 101/136/61 8/7/62 11/5/60 102/138/59
s 4
f 100/135/63 6/16/64 8/7/65 101/136/66
s 1
f 99/134/67 10/15/68 6/16/69 100/135/70
f 98/133/71 5/17/72 10/15/68 99/134/67
s 5
f 91/125/73 19/41/74 20/42/75 92/126/76
s 1
f 19/41/77 91/125/78 96/131/79 24/47/80
f 24/47/80 96/131/79 95/130/81 23/46/82
s 4
f 23/46/83 95/130/84 94/129/85 22/45/86
s 3
f 22/45/87 94/129/88 93/128/89 21/44/90
f 92/126/91 20/42/92 21/43/90 93/127/89
s 5
f 19/41/74 86/119/93 85/118/94 20/42/75
s 3
f 20/42/92 85/118/95 90/123/96 21/43/90
f 89/122/97 22/45/87 21/44/90 90/124/96
s 4
f 88/121/98 23/46/83 22/45/86 89/122/99
s 1
f 87/120/100 24/47/80 23/46/82 88/121/101
f 86/119/102 19/41/77 24/47/80 87/120/100
s 10
f 1/29/103 3/28/104 74/105/105 73/104/106
s 8
f 1/29/107 73/104/108 78/109/109 12/30/110
f 77/108/111 2/34/112 12/38/110 78/110/109
s 9
f 76/107/113 4/35/114 2/34/115 77/108/116
s 7
f 75/106/117 9/27/118 4/35/119 76/107/120
f 74/105/121 3/28/122 9/27/118 75/106/117
s 10
f 67/97/123 37/62/124 38/63/125 68/98/126
s 7
f 37/62/127 67/97/128 72/103/129 42/68/130
f 42/68/130 72/103/129 71/102/131 41/67/132
s 9
f 41/67/133 71/102/134 70/101/135 40/66/136
s 8
f 40/66/137 70/101/138 69/100/139 39/65/140
f 68/98/141 38/63/142 39/64/140 69/99/139
s 10
f 37/62/124 62/91/143 61/90/144 38/63/125
s 8
f 38/63/142 61/90/145 66/95/146 39/64/140
f 65/94/147 40/66/137 39/65/140 66/96/146
s 9
f 64/93/148 41/67/133 40/66/136 65/94/149
s 7
f 63/92/150 42/68/130 41/67/132 64/93/151
f 62/91/152 37/62/127 42/68/130 63/92/150
s 10
f 49/76/153 55/83/43 56/84/46 50/77/154
s 8
f 50/77/155 56/84/35 57/85/38 51/78/156
f 58/87/50 52/80/157 51/79/156 57/86/38
s 9
f 59/88/41 53/81/158 52/80/159 58/87/42
s 7
f 60/89/33 54/82/160 53/81/161 59/88/47
f 55/83/32 49/76/162 54/82/160 60/89/33
s 10
f 62/91/143 49/76/153 50/77/154 61/90/144
s 7
f 49/76/162 62/91/152 63/92/150 54/82/160
f 54/82/160 63/92/150 64/93/151 53/81/161
s 9
f 53/81/158 64/93/148 65/94/149 52/80/159
s 8
f 52/80/157 65/94/147 66/96/146 51/79/156
f 61/90/145 50/77/155 51/78/156 66/95/146
s 10
f 44/70/163 67/97/123 68/98/126 43/69/164
s 8
f 43/69/165 68/98/141 69/99/139 48/74/166
f 70/101/138 47/73/167 48/75/166 69/100/139
s 9
f 71/102/134 46/72/168 47/73/169 70/101/135
s 7
f 72/103/129 45/71/170 46/72/171 71/102/131
f 67/97/128 44/70/172 45/71/170 72/103/129
s 10
f 74/105/105 44/70/163 43/69/164 73/104/106
s 7
f 44/70/172 74/105/121 75/106/117 45/71/170
f 45/71/170 75/106/117 76/107/120 46/72/171
s 9
f 46/72/168 76/107/113 77/108/116 47/73/169
s 8
f 47/73/167 77/108/111 78/110/109 48/75/166
f 73/104/108 43/69/165 48/74/166 78/109/109
s 5
f 31/55/173 79/111/17 80/112/20 32/56/174
s 3
f 32/56/175 80/112/9 81/113/12 33/57/176
f 82/115/26 34/59/177 33/58/176 81/114/12
s 4
f 83/116/15 35/60/178 34/59/179 82/115/16
s 1
f 84/117/3 36/61/180 35/60/181 83/116/21
f 79/111/2 31/55/182 36/61/180 84/117/3
s 5
f 86/119/93 31/55/173 32/56/174 85/118/94
s 1
f 31/55/182 86/119/102 87/120/100 36/61/180
f 36/61/180 87/120/100 88/121/101 35/60/181
s 4
f 35/60/178 88/121/98 89/122/99 34/59/179
s 3
f 34/59/177 89/122/97 90/124/96 33/58/176
f 85/118/95 32/56/175 33/57/176 90/123/96
s 5
f 26/49/183 91/125/73 92/126/76 25/48/184
s 3
f 25/48/185 92/126/91 93/127/89 30/53/186
f 94/129/88 29/52/187 30/54/186 93/128/89
s 4
f 95/130/84 28/51/188 29/52/189 94/129/85
s 1
f 96/131/79 27/50/190 28/51/191 95/130/81
f 91/125/78 26/49/192 27/50/190 96/131/79
s 5
f 98/133/55 26/49/183 25/48/184 97/132/56
s 1
f 26/49/192 98/133/71 99/134/67 27/50/190
f 27/50/190 99/134/67 100/135/70 28/51/191
s 4
f 28/51/188 100/135/63 101/136/66 29/52/189
s 3
f 29/52/187 101/136/61 102/138/59 30/54/186
f 97/132/58 25/48/185 30/53/186 102/137/59
