# This file uses centimeters as units for non-parametric coordinates.

mtllib Inside_Corner_HP.mtl
g default
v 2.973361 0.007802 -2.007802
v 2.973361 0.000000 -2.026639
v 2.992198 0.007802 -2.026639
v 3.000000 0.026639 -2.026639
v 2.992198 0.026639 -2.007802
v 2.973361 0.026639 -2.000000
v 2.973361 0.000000 -2.541146
v 2.973361 0.000000 -2.559983
v 2.992198 0.007802 -2.559967
v 3.000000 0.026639 -2.559963
v 3.000000 0.026639 -2.541126
v 3.000000 0.026639 -2.522290
v 2.992198 0.007802 -2.522296
v 2.973361 0.000000 -2.522309
v 2.973358 0.992198 -2.007802
v 2.973361 0.973361 -2.000000
v 2.992198 0.973363 -2.007802
v 3.000000 0.973361 -2.026639
v 2.992198 0.992198 -2.026639
v 2.973361 1.000000 -2.026639
v 3.000000 0.962606 -2.542168
v 3.000000 0.936624 -2.560208
v 2.992346 0.970459 -2.557075
v 2.973523 0.984411 -2.554607
v 2.973562 0.995918 -2.539292
v 2.973588 1.000000 -2.520606
v 2.992272 0.992153 -2.521377
v 3.000000 0.973180 -2.522162
v 2.992198 0.007802 -2.973346
v 2.973361 0.000000 -2.973360
v 2.973366 0.007802 -2.992197
v 2.973361 0.026639 -2.999999
v 2.992198 0.026641 -2.992198
v 3.000000 0.026639 -2.973361
v 2.992542 0.477249 -2.980565
v 3.000000 0.459141 -2.974605
v 2.992543 0.449328 -2.990949
v 2.972970 0.448196 -2.999999
v 2.972962 0.467308 -2.996559
v 2.972970 0.484023 -2.986671
v 1.008507 0.973361 -2.000000
v 1.000637 0.992198 -2.007802
v 0.981636 1.000000 -2.026639
v 0.003429 0.467294 -2.969910
v 0.013346 0.484031 -2.959732
v 0.021432 0.484154 -2.978632
v 0.040956 0.484279 -2.986461
v 0.030259 0.467226 -2.996504
v 0.026284 0.448819 -2.999907
v 0.007698 0.448815 -2.992209
v -0.000000 0.448806 -2.973626
v 0.007867 0.007644 -2.965578
v -0.000000 0.026103 -2.973804
v 0.007487 0.025830 -2.992262
v 0.025566 0.025566 -2.999907
v 0.034198 0.007485 -2.992102
v 0.054615 0.000000 -2.972772
v 0.035185 0.000000 -2.964923
v 0.027135 0.000000 -2.945979
v 0.479522 0.995364 -2.541884
v 0.471956 0.984278 -2.556511
v 0.453708 0.983714 -2.549024
v 0.446150 0.983158 -2.530910
v 0.461187 0.994868 -2.523730
v 0.481487 1.000000 -2.522268
v 0.981636 0.000000 -2.026639
v 1.000637 0.007802 -2.007802
v 1.008507 0.026639 -2.000000
v 0.458299 0.000000 -2.526025
v 0.441932 0.000000 -2.535167
v 0.449732 0.000000 -2.554037
v 0.468536 0.000000 -2.561841
v 0.477757 0.000000 -2.545502
v 0.479597 0.000000 -2.524160
v 0.992198 0.992198 -0.026642
v 0.973361 1.000000 -0.026639
v 0.973361 0.992198 -0.007802
v 0.973361 0.973361 0.000000
v 0.992198 0.973363 -0.007802
v 1.000000 0.973361 -0.026639
v 0.460768 0.995942 -0.026363
v 0.445512 0.984504 -0.026335
v 0.443021 0.970598 -0.007611
v 0.439872 0.936864 0.000000
v 0.457872 0.962682 0.000000
v 0.477839 0.973179 0.000000
v 0.478635 0.992153 -0.007727
v 0.479433 1.000000 -0.026412
v 0.992198 0.007802 -0.026639
v 1.000000 0.026639 -0.026639
v 0.992198 0.026639 -0.007802
v 0.973361 0.026639 0.000000
v 0.973361 0.007802 -0.007802
v 0.973361 0.000000 -0.026639
v 0.458894 0.000000 -0.026639
v 0.477730 0.000000 -0.026639
v 0.477715 0.007802 -0.007802
v 0.477710 0.026639 0.000000
v 0.458874 0.026639 0.000000
v 0.440037 0.026639 0.000000
v 0.440044 0.007802 -0.007802
v 0.440057 0.000000 -0.026639
v 0.003490 0.467291 -0.027437
v -0.000000 0.447901 -0.027420
v 0.009038 0.449156 -0.007593
v 0.025394 0.459141 0.000000
v 0.019536 0.477388 -0.007593
v 0.013520 0.484246 -0.027420
v 0.026654 0.007802 -0.007802
v 0.026639 0.026639 0.000000
v 0.007802 0.026640 -0.007802
v -0.000000 0.026639 -0.026639
v 0.007802 0.007802 -0.026629
v 0.026639 0.000000 -0.026639
v 1.000000 0.026639 -2.008434
v 0.992198 0.007802 -2.016169
v 0.973361 0.000000 -2.034843
v 0.973361 1.000000 -2.034843
v 0.992198 0.992198 -2.016169
v 1.000000 0.973361 -2.008434
v 2.988736 0.011264 -2.011264
v 2.992198 0.007802 -2.541126
v 2.988735 0.988736 -2.011264
v 2.992292 0.986227 -2.540615
v 2.988733 0.011266 -2.988744
v 2.989062 0.465279 -2.991103
v 0.011299 0.467312 -2.988685
v 0.015592 0.007565 -2.984299
v 0.463466 0.992993 -2.539516
v 0.460810 0.000000 -2.543003
v 0.988736 0.988736 -0.011265
v 0.459432 0.986267 -0.007689
v 0.988736 0.011264 -0.011264
v 0.458885 0.007802 -0.007802
v 0.008928 0.465268 -0.011128
v 0.011256 0.011266 -0.011264
vt 0.546941 0.860648
vt 0.538200 0.608487
vt 0.257454 0.620842
vt 0.474575 0.608967
vt 0.946199 0.605409
vt 0.361725 0.620976
vt 0.675316 0.863117
vt 0.257215 0.805937
vt 0.354095 0.806026
vt 0.361543 0.798889
vt 0.742085 0.606927
vt 0.893137 0.605809
vt 0.442683 0.705640
vt 0.886295 0.605863
vt 0.832184 0.606321
vt 0.744525 0.927798
vt 0.826969 0.011002
vt 0.834945 0.984563
vt 0.889297 0.984246
vt 0.896049 0.980451
vt 0.948612 0.926701
vt 0.742726 0.066458
vt 0.667496 0.134329
vt 0.676253 0.388664
vt 0.739654 0.388215
vt 0.398334 0.395638
vt 0.744921 0.388183
vt 0.829763 0.387404
vt 0.309618 0.389112
vt 0.539096 0.131895
vt 0.477432 0.390163
vt 0.399141 0.238148
vt 0.316688 0.237726
vt 0.895983 0.387005
vt 0.310421 0.237694
vt 0.241652 0.237341
vt 0.835072 0.387366
vt 0.889147 0.387059
vt 0.354359 0.620967
vt 0.673401 0.607468
vt 0.736807 0.606961
vt 0.739198 0.926590
vt 0.826947 0.606358
vt 0.829734 0.982712
vt 0.442549 0.621081
vt 0.540140 0.864136
vt 0.666562 0.607519
vt 0.668464 0.859732
vt 0.545039 0.608436
vt 0.315903 0.395185
vt 0.541052 0.389683
vt 0.475017 0.069343
vt 0.547891 0.389632
vt 0.545973 0.135245
vt 0.669414 0.388716
vt 0.241076 0.309288
vt 0.674321 0.130875
vt 0.832111 0.009188
vt 0.886364 0.008756
vt 0.893210 0.012261
vt 0.946630 0.064376
vt 0.949050 0.386605
vt 0.737208 0.067610
vt 0.476982 0.928811
vt 0.541619 0.608443
vt 0.255469 0.615631
vt 0.539482 0.605058
vt 0.543710 0.605026
vt 0.252248 0.618849
vt 0.948610 0.604595
vt 0.472154 0.608187
vt 0.361818 0.615768
vt 0.946116 0.601992
vt 0.358042 0.620950
vt 0.474599 0.605547
vt 0.354294 0.615758
vt 0.669981 0.607482
vt 0.252004 0.807916
vt 0.667840 0.604090
vt 0.672066 0.604058
vt 0.255215 0.811142
vt 0.357999 0.804034
vt 0.742396 0.603528
vt 0.360768 0.807842
vt 0.739438 0.606940
vt 0.353786 0.811269
vt 0.736782 0.603570
vt 0.891812 0.602402
vt 0.444531 0.615875
vt 0.889719 0.605826
vt 0.447760 0.619127
vt 0.887557 0.602434
vt 0.445518 0.709951
vt 0.827406 0.602887
vt 0.831698 0.602855
vt 0.447650 0.704207
vt 0.829568 0.606332
vt 0.671883 0.859706
vt 0.829583 0.009673
vt 0.830007 0.986388
vt 0.827145 0.007411
vt 0.832423 0.984078
vt 0.832027 0.005814
vt 0.834913 0.987938
vt 0.889713 0.009761
vt 0.889812 0.987524
vt 0.886898 0.005400
vt 0.892581 0.983124
vt 0.892390 0.008017
vt 0.895264 0.984780
vt 0.740675 0.928057
vt 0.738671 0.066123
vt 0.741645 0.063740
vt 0.743677 0.930417
vt 0.740100 0.067398
vt 0.543521 0.860674
vt 0.949048 0.065551
vt 0.475655 0.930170
vt 0.475018 0.072072
vt 0.949591 0.929159
vt 0.947553 0.061898
vt 0.474573 0.929059
vt 0.951030 0.925467
vt 0.672835 0.388708
vt 0.400007 0.400078
vt 0.674970 0.392093
vt 0.670743 0.392125
vt 0.402757 0.397351
vt 0.742286 0.388204
vt 0.310227 0.396708
vt 0.745286 0.391563
vt 0.312599 0.393483
vt 0.739691 0.391605
vt 0.316130 0.399648
vt 0.544471 0.389669
vt 0.403581 0.236481
vt 0.546613 0.393061
vt 0.542385 0.393093
vt 0.400858 0.233726
vt 0.475037 0.390999
vt 0.951474 0.387383
vt 0.316772 0.233295
vt 0.477502 0.393582
vt 0.313555 0.237690
vt 0.949019 0.390027
vt 0.310370 0.233262
vt 0.832418 0.387391
vt 0.236858 0.308013
vt 0.834624 0.390890
vt 0.830287 0.390922
vt 0.238659 0.312962
vt 0.239994 0.232901
vt 0.894715 0.390437
vt 0.890460 0.390469
vt 0.237229 0.235650
vt 0.892564 0.387042
vt 0.542554 0.135271
vt 0.670915 0.134303
vt 0.541594 0.605042
vt 0.252252 0.615627
vt 0.358049 0.615763
vt 0.472134 0.605566
vt 0.948591 0.601974
vt 0.669956 0.604074
vt 0.252000 0.811138
vt 0.739416 0.603551
vt 0.357796 0.811275
vt 0.889689 0.602418
vt 0.447764 0.615879
vt 0.447646 0.707493
vt 0.829540 0.602871
vt 0.832425 0.987956
vt 0.829540 0.005833
vt 0.892604 0.987503
vt 0.889689 0.005379
vt 0.741871 0.929246
vt 0.739856 0.064918
vt 0.949031 0.063341
vt 0.951046 0.927669
vt 0.474590 0.931261
vt 0.672859 0.392109
vt 0.402743 0.400092
vt 0.312725 0.399631
vt 0.742319 0.391585
vt 0.544497 0.393077
vt 0.403596 0.233740
vt 0.313578 0.233278
vt 0.951494 0.390008
vt 0.475037 0.393601
vt 0.832444 0.390906
vt 0.236843 0.310838
vt 0.237243 0.232887
vt 0.892592 0.390453
vn 0.003415 -0.999904 0.013409
vn 0.002414 -0.923988 0.382415
vn 0.000000 -0.923879 0.382685
vn 0.000000 -0.999989 0.004773
vn 0.002430 -0.382416 0.923987
vn 0.003907 -0.008070 0.999960
vn 0.000000 -0.009949 0.999951
vn 0.000000 -0.382688 0.923878
vn 0.999855 -0.007981 0.015067
vn 0.924271 -0.381620 0.009453
vn 0.923876 -0.382692 -0.000000
vn 0.999967 -0.008077 -0.000000
vn 0.381616 -0.924272 0.009453
vn 0.003419 -0.999994 -0.000000
vn 0.382688 -0.923878 -0.000000
vn 0.382126 -0.005015 0.924097
vn 0.382125 0.005016 0.924097
vn 0.003907 0.008069 0.999960
vn 0.924096 -0.005015 0.382127
vn 0.999855 0.007938 0.015070
vn 0.924096 0.005016 0.382127
vn 0.002886 -0.999996 0.000000
vn 0.003101 -0.999995 -0.000000
vn 0.000000 -1.000000 0.000000
vn 0.000000 -1.000000 0.000000
vn 0.000000 -1.000000 0.000000
vn 0.999938 -0.011123 0.000000
vn 0.923883 -0.382676 0.000000
vn 0.924343 -0.381396 -0.011266
vn 0.999871 -0.011299 -0.011398
vn 0.382685 -0.923879 0.000000
vn 0.002810 -0.999815 -0.019036
vn 0.381407 -0.924339 -0.011262
vn 0.999967 -0.008160 0.000000
vn 0.999906 0.009960 -0.009478
vn 0.999968 0.008032 -0.000169
vn 0.998996 0.029287 -0.033916
vn 0.002429 0.382416 0.923987
vn 0.000000 0.382688 0.923878
vn 0.000000 0.009949 0.999951
vn 0.002413 0.923987 0.382416
vn 0.003427 0.999904 0.013457
vn 0.000000 0.999989 0.004791
vn 0.000000 0.923878 0.382686
vn 0.383812 0.923362 0.009578
vn 0.386127 0.922392 -0.009964
vn 0.003527 0.999950 -0.009375
vn 0.925368 0.378954 0.009425
vn 0.925423 0.378907 -0.004753
vn 0.002260 0.656799 -0.754063
vn 0.390262 0.602301 -0.696369
vn 0.390097 0.598615 -0.699632
vn 0.003261 0.648537 -0.761176
vn 0.920548 0.254562 -0.296294
vn 0.999926 0.005018 -0.011058
vn 0.921731 0.251599 -0.295145
vn 0.003492 0.908882 -0.417038
vn -0.000885 0.895846 -0.444364
vn -0.009927 0.999905 -0.009583
vn -0.001039 0.655606 -0.755103
vn 0.002768 -0.017633 -0.999841
vn 0.001718 -0.389171 -0.921164
vn -0.001548 -0.390053 -0.920791
vn -0.002649 -0.013295 -0.999908
vn 0.001633 -0.928349 -0.371705
vn -0.000066 -0.998685 -0.051257
vn -0.002404 -0.929238 -0.369473
vn 0.918161 -0.011969 -0.396028
vn 0.916474 0.003493 -0.400080
vn 0.399940 -0.009390 -0.916493
vn 0.002864 0.007728 -0.999966
vn 0.400966 0.005627 -0.916076
vn 0.002167 0.351378 -0.936231
vn -0.002825 0.311358 -0.950288
vn -0.003751 0.646309 -0.763067
vn -0.002639 0.006789 -0.999974
vn -0.761683 0.647938 -0.003935
vn -0.949847 0.312704 -0.002779
vn -0.936291 0.351217 0.002223
vn -0.759730 0.650232 0.002768
vn -0.999973 0.006939 -0.002586
vn -0.999965 0.007813 0.002901
vn -0.459006 0.768839 -0.445198
vn -0.450676 0.774296 -0.444249
vn -0.753627 0.657301 -0.001517
vn -0.925135 0.010307 -0.379499
vn -0.925148 -0.020843 -0.379035
vn -0.999904 -0.013603 -0.002626
vn -0.385815 0.010527 -0.922516
vn -0.386017 0.000482 -0.922491
vn -0.921657 -0.388002 -0.001569
vn -0.922018 -0.387144 0.001677
vn -0.999839 -0.017727 0.002798
vn -0.373440 -0.927651 -0.002326
vn -0.050710 -0.998713 -0.000069
vn -0.019131 -0.999813 0.002794
vn -0.375531 -0.926809 0.001616
vn -0.014035 -0.999804 -0.013971
vn 0.000000 -1.000000 0.000000
vn 0.000000 -1.000000 0.000000
vn -0.446930 0.894568 -0.001449
vn -0.423522 0.905882 0.002738
vn -0.009915 0.999945 0.003508
vn -0.752675 0.658390 0.001735
vn 0.000000 -1.000000 0.000000
vn 0.000000 -0.999995 0.003096
vn -0.000000 -0.999996 0.002865
vn 0.000000 -0.999994 0.003420
vn 0.013552 0.999902 0.003423
vn 0.382415 0.923987 0.002393
vn 0.382684 0.923880 0.000000
vn 0.004895 0.999988 0.000000
vn 0.923988 0.382414 0.002409
vn 0.999960 0.008069 0.003874
vn 0.999951 0.009920 0.000000
vn 0.923879 0.382684 0.000000
vn 0.015070 0.007938 0.999855
vn 0.009425 0.378940 0.925373
vn -0.004699 0.378891 0.925429
vn -0.000167 0.008027 0.999968
vn 0.009578 0.923364 0.383807
vn -0.009859 0.922394 0.386125
vn 0.924100 0.005016 0.382118
vn 0.924100 -0.005015 0.382119
vn 0.999960 -0.008070 0.003874
vn 0.382119 0.005016 0.924100
vn 0.015067 -0.007980 0.999855
vn 0.382119 -0.005015 0.924100
vn -0.034178 0.029490 0.998981
vn -0.297915 0.255983 0.919630
vn -0.297412 0.253275 0.920542
vn -0.011094 0.005027 0.999926
vn -0.697321 0.602870 0.387674
vn -0.700688 0.599138 0.387389
vn -0.009371 0.009917 0.999907
vn -0.000000 -0.008168 0.999967
vn -0.000000 -0.008075 0.999967
vn 0.000000 -0.011125 0.999938
vn 0.923988 -0.382414 0.002409
vn 0.923879 -0.382684 0.000000
vn 0.999951 -0.009920 0.000000
vn 0.382416 -0.923987 0.002394
vn 0.013503 -0.999903 0.003411
vn 0.004875 -0.999988 0.000000
vn 0.382684 -0.923879 0.000000
vn 0.009453 -0.924275 0.381611
vn 0.000000 -0.923880 0.382683
vn 0.009453 -0.381611 0.924275
vn -0.000000 -0.382683 0.923880
vn -0.000000 -0.923879 0.382684
vn -0.011258 -0.924339 0.381407
vn 0.000000 -0.382683 0.923880
vn -0.011492 -0.011293 0.999870
vn -0.011263 -0.381403 0.924340
vn -0.403050 0.003701 0.915171
vn -0.398800 -0.011815 0.916962
vn -0.917199 0.006003 0.398385
vn -0.917532 -0.009110 0.397559
vn 0.325274 -0.325272 0.887916
vn 0.325269 -0.887919 0.325268
vn 0.887920 -0.325264 0.325270
vn 0.382682 -0.923880 -0.000000
vn 0.923877 -0.382691 -0.000000
vn 0.325237 0.887926 0.325283
vn 0.325233 0.325315 0.887915
vn 0.887909 0.325300 0.325267
vn 0.925061 0.321689 -0.201935
vn 0.397543 0.791390 -0.464393
vn 0.887926 -0.325362 -0.325157
vn 0.325415 -0.887933 -0.325084
vn 0.325129 -0.325058 -0.888047
vn 0.384559 0.321830 -0.865182
vn 0.849389 0.183959 -0.494669
vn -0.833073 0.429717 -0.348330
vn -0.342695 0.430702 -0.834899
vn -0.188315 -0.964358 -0.185877
vn -0.806305 -0.494067 -0.325224
vn -0.339718 -0.501603 -0.795604
vn -0.339718 -0.501603 -0.795604
vn -0.340386 0.886599 -0.313176
vn 0.000000 -1.000000 0.000000
vn 0.887916 0.325313 0.325233
vn 0.325285 0.887923 0.325243
vn 0.325271 0.325305 0.887905
vn -0.462074 0.792465 0.398105
vn -0.200339 0.321611 0.925436
vn 0.325270 -0.887919 0.325270
vn 0.887919 -0.325269 0.325269
vn 0.325269 -0.325269 0.887919
vn 0.000000 -0.923880 0.382683
vn -0.000000 -0.382684 0.923880
vn -0.867275 0.322586 0.379174
vn -0.501505 0.186516 0.844811
vn -0.325013 -0.887947 0.325448
vn -0.325091 -0.325331 0.887961
vn -0.888054 -0.324988 0.325182
s 1
g inside_corner_HP
usemtl initialShadingGroup
f 2/2/1 1/65/2 67/116/3 66/46/4
s 2
f 1/65/5 6/49/6 68/1/7 67/116/8
s 3
f 4/3/9 3/66/10 13/76/11 12/39/12
s 1
f 3/67/13 2/2/1 14/4/14 13/75/15
s 2
f 6/49/6 5/68/16 17/79/17 16/47/18
s 3
f 5/69/19 4/3/9 18/8/20 17/78/21
s 1
f 8/5/22 7/70/23 73/123/24 72/21/25
f 7/71/23 14/4/14 74/64/26 73/122/24
s 3
f 10/6/27 9/72/28 29/89/29 34/45/30
s 1
f 9/73/31 8/5/22 30/12/32 29/88/33
s 3
f 12/39/12 11/74/34 21/82/35 28/9/36
f 11/74/34 10/6/27 22/10/37 21/82/35
s 2
f 16/47/18 15/77/38 42/98/39 41/48/40
s 6
f 15/77/41 20/40/42 43/7/43 42/98/44
f 20/40/42 19/80/45 27/87/46 26/41/47
s 3
f 19/81/48 18/8/20 28/9/36 27/86/49
s 6
f 24/11/50 23/83/51 35/94/52 40/43/53
s 3
f 23/84/54 22/10/37 36/13/55 35/93/56
s 6
f 26/41/47 25/85/57 60/111/58 65/42/59
f 25/85/57 24/11/50 61/16/60 60/111/58
f 32/14/61 31/90/62 56/108/63 55/19/64
s 1
f 31/90/65 30/12/32 57/20/66 56/108/67
s 3
f 34/45/30 33/91/68 37/96/69 36/13/55
s 6
f 33/92/70 32/14/61 38/15/71 37/95/72
f 40/43/53 39/97/73 48/102/74 47/44/75
f 39/97/73 38/15/71 49/18/76 48/102/74
f 45/17/77 44/99/78 103/147/79 108/28/80
f 44/99/78 51/58/81 104/37/82 103/147/79
f 47/44/75 46/100/83 62/114/84 61/16/60
f 46/101/83 45/17/77 63/22/85 62/113/84
f 51/58/81 50/103/86 54/107/87 53/59/88
f 50/104/89 49/18/76 55/19/64 54/106/90
f 53/59/88 52/105/91 113/156/92 112/38/93
s 1
f 52/105/94 59/60/95 114/34/96 113/156/97
f 59/60/95 58/109/98 71/121/99 70/61/100
f 58/110/98 57/20/66 72/21/25 71/120/99
s 6
f 65/63/59 64/115/101 81/129/102 88/25/103
f 64/115/101 63/22/85 82/27/104 81/129/102
s 1
f 70/61/100 69/117/105 95/141/106 102/62/107
f 69/119/105 74/52/26 96/31/108 95/140/106
s 6
f 76/24/109 75/124/110 119/158/111 118/57/112
s 12
f 75/124/113 80/55/114 120/23/115 119/158/116
s 13
f 78/26/117 77/125/118 87/134/119 86/50/120
s 6
f 77/126/121 76/24/109 88/25/103 87/133/122
s 12
f 80/55/114 79/127/123 91/137/124 90/53/125
s 13
f 79/128/126 78/26/117 92/32/127 91/136/128
f 84/29/129 83/130/130 107/151/131 106/56/132
s 6
f 83/131/133 82/27/104 108/28/80 107/150/134
s 13
f 86/50/120 85/132/135 99/144/136 98/33/137
f 85/132/135 84/29/129 100/35/138 99/144/136
s 12
f 90/53/125 89/135/139 116/157/140 115/54/141
s 1
f 89/135/142 94/51/143 117/30/144 116/157/145
f 94/51/143 93/138/146 97/143/147 96/31/108
s 13
f 93/139/148 92/32/127 98/33/137 97/142/149
s 1
f 102/62/107 101/145/150 109/153/151 114/34/96
s 13
f 101/146/152 100/35/138 110/36/153 109/152/154
f 106/56/132 105/148/155 111/155/156 110/36/153
s 6
f 105/149/157 104/37/82 112/38/93 111/154/158
s 3
f 4/3/9 12/39/12 28/9/36 18/8/20
s 6
f 20/40/42 26/41/47 65/42/59 43/7/43
f 32/14/61 55/19/64 49/18/76 38/15/71
f 24/11/50 40/43/53 47/44/75 61/16/60
s 1
f 8/5/22 72/21/25 57/20/66 30/12/32
s 3
f 22/10/37 10/6/27 34/45/30 36/13/55
s 1
f 2/2/1 66/46/4 74/64/26 14/4/14
s 2
f 16/47/18 41/48/40 68/1/7 6/49/6
s 13
f 78/26/117 86/50/120 98/33/137 92/32/127
s 1
f 94/51/143 96/31/108 74/52/26 117/30/144
s 12
f 90/53/125 115/54/141 120/23/115 80/55/114
s 13
f 100/35/138 84/29/129 106/56/132 110/36/153
s 6
f 76/24/109 118/57/112 65/63/59 88/25/103
f 51/58/81 53/59/88 112/38/93 104/37/82
f 63/22/85 45/17/77 108/28/80 82/27/104
s 1
f 59/60/95 70/61/100 102/62/107 114/34/96
s 2
f 5/68/16 6/49/6 1/65/5 121/159/159
s 1
f 1/65/2 2/2/1 3/67/13 121/159/160
s 3
f 3/66/10 4/3/9 5/69/19 121/160/161
s 1
f 13/75/15 14/4/14 7/71/23 122/162/162
f 7/70/23 8/5/22 9/73/31 122/163/162
s 3
f 9/72/28 10/6/27 11/74/34 122/161/163
f 11/74/34 12/39/12 13/76/11 122/161/163
s 6
f 19/80/45 20/40/42 15/77/41 123/164/164
s 2
f 15/77/38 16/47/18 17/79/17 123/164/165
s 3
f 17/78/21 18/8/20 19/81/48 123/165/166
f 27/86/49 28/9/36 21/82/35 124/167/167
f 21/82/35 22/10/37 23/84/54 124/167/167
s 6
f 23/83/51 24/11/50 25/85/57 124/166/168
f 25/85/57 26/41/47 27/87/46 124/166/168
s 3
f 33/91/68 34/45/30 29/89/29 125/169/169
s 1
f 29/88/33 30/12/32 31/90/65 125/168/170
s 6
f 31/90/62 32/14/61 33/92/70 125/168/171
f 39/97/73 40/43/53 35/94/52 126/171/172
s 3
f 35/93/56 36/13/55 37/96/69 126/170/173
s 6
f 37/95/72 38/15/71 39/97/73 126/171/172
f 50/103/86 51/58/81 44/99/78 127/173/174
f 44/99/78 45/17/77 46/101/83 127/173/174
f 46/100/83 47/44/75 48/102/74 127/172/175
f 48/102/74 49/18/76 50/104/89 127/172/175
s 1
f 58/109/98 59/60/95 52/105/94 128/175/176
s 6
f 52/105/91 53/59/88 54/107/87 128/175/177
f 54/106/178 55/19/64 56/108/63 128/174/179
s 1
f 56/108/67 57/20/66 58/110/98 128/174/176
s 6
f 64/115/101 65/63/59 60/112/58 129/177/180
f 60/111/58 61/16/60 62/114/84 129/176/180
f 62/113/84 63/22/85 64/115/101 129/177/180
s 1
f 73/122/24 74/64/26 69/118/105 130/180/181
f 69/117/105 70/61/100 71/121/99 130/178/181
f 71/120/99 72/21/25 73/123/24 130/179/181
s 12
f 79/127/123 80/55/114 75/124/113 131/181/182
s 6
f 75/124/110 76/24/109 77/126/121 131/181/183
s 13
f 77/125/118 78/26/117 79/128/126 131/182/184
s 6
f 87/133/122 88/25/103 81/129/102 132/184/185
f 81/129/102 82/27/104 83/131/133 132/184/185
s 13
f 83/130/130 84/29/129 85/132/135 132/183/186
f 85/132/135 86/50/120 87/134/119 132/183/186
s 1
f 93/138/146 94/51/143 89/135/142 133/185/187
s 12
f 89/135/139 90/53/125 91/137/124 133/185/188
s 13
f 91/136/128 92/32/127 93/139/148 133/186/189
s 1
f 101/145/150 102/62/107 95/141/106 134/188/190
f 95/140/106 96/31/108 97/143/147 134/189/190
s 13
f 97/142/149 98/33/137 99/144/136 134/187/191
f 99/144/136 100/35/138 101/146/152 134/187/191
s 6
f 107/150/134 108/28/80 103/147/79 135/190/192
f 103/147/79 104/37/82 105/149/157 135/190/192
s 13
f 105/148/155 106/56/132 107/151/131 135/191/193
s 1
f 113/156/97 114/34/96 109/153/151 136/193/194
s 13
f 109/152/154 110/36/153 111/155/156 136/192/195
s 6
f 111/154/158 112/38/93 113/156/92 136/193/196
