# This file uses centimeters as units for non-parametric coordinates.

mtllib Outside_Corner_LP.mtl
g default
v -1.000000 0.000000 0.000000
v 0.000000 0.000000 0.000000
v -1.000000 1.000000 0.000000
v 0.000000 0.468588 0.000000
v -1.000000 1.000000 -3.941612
v 0.000000 0.468588 -3.000000
v -1.000000 0.000000 -4.000000
v 0.000000 0.000000 -3.000000
v -0.458874 1.000000 0.000000
v -0.458876 1.000000 -3.458874
v -0.458874 0.000000 -3.468014
v -0.458874 0.000000 0.000000
v 3.000000 1.000000 -4.000000
v 3.000000 0.468588 -3.000000
v 3.000000 0.000000 -4.000000
v 3.000000 0.000000 -3.000000
v 3.000000 1.000000 -3.458874
v 3.000000 0.000000 -3.458874
vt 0.453638 0.147253
vt 0.770205 0.782095
vt 0.580240 0.779022
vt 0.454095 0.258523
vt 0.412611 0.760670
vt 0.473088 0.706842
vt 0.474753 0.595015
vt 0.415254 0.534702
vt 0.768794 0.869265
vt 0.361229 0.891318
vt 0.361289 0.839001
vt 0.454663 0.396860
vt 0.781090 0.296636
vt 0.781978 0.202322
vt 0.026225 0.942168
vt 0.028212 0.588177
vt 0.026284 0.890935
vt 0.687715 0.375743
vt 0.455087 0.500059
vt 0.454877 0.449000
vt 0.454342 0.318735
vt 0.679779 0.867825
vt 0.771868 0.679300
vt 0.581903 0.676227
vt 0.606797 0.294995
vt 0.606043 0.374974
vt 0.026433 0.760228
vt 0.026343 0.838618
vt 0.026502 0.699813
vt 0.607685 0.200680
vt 0.029137 0.527768
vt 0.069199 0.501644
vt 0.453391 0.087041
vt 0.067502 0.088626
vt 0.412402 0.943630
vt 0.121065 0.450371
vt 0.069471 0.320316
vt 0.120851 0.398231
vt 0.015509 0.260325
vt 0.008555 0.149081
vn 0.000000 0.000000 1.000000
vn 0.000000 0.000000 1.000000
vn 0.000000 0.000000 1.000000
vn 0.000000 0.000000 1.000000
vn 0.000000 1.000000 0.000000
vn 0.441863 0.897083 -0.000000
vn 0.269876 0.962895 -0.000000
vn 0.000000 1.000000 0.000000
vn 0.000000 -1.000000 0.000000
vn 0.000000 -1.000000 0.000000
vn 0.000000 -1.000000 0.000000
vn 0.000000 -1.000000 0.000000
vn 1.000000 0.000000 0.000000
vn 1.000000 0.000000 0.000000
vn 1.000000 0.000000 0.000000
vn 1.000000 0.000000 0.000000
vn -1.000000 0.000000 0.000000
vn -1.000000 0.000000 0.000000
vn -1.000000 0.000000 0.000000
vn -1.000000 0.000000 0.000000
vn 0.756874 0.653561 -0.000000
vn 0.756874 0.653561 -0.000000
vn 0.000000 -1.000000 0.000000
vn 0.000000 -1.000000 0.000000
vn 0.000000 0.000000 1.000000
vn 0.000000 0.000000 1.000000
vn 0.000000 1.000000 0.000000
vn 0.000000 0.963155 0.268948
vn 0.000000 0.892671 0.450709
vn 0.000000 1.000000 0.000000
vn 1.000000 0.000000 0.000000
vn 1.000000 0.000000 0.000000
vn 1.000000 0.000000 0.000000
vn 1.000000 0.000000 0.000000
vn 0.000000 -1.000000 0.000000
vn 0.000000 -1.000000 0.000000
vn 0.000000 -1.000000 0.000000
vn 0.000000 -1.000000 0.000000
vn 0.000000 0.000000 1.000000
vn 0.000000 0.000000 1.000000
vn 0.000000 0.000000 1.000000
vn 0.000000 0.000000 1.000000
vn -0.007295 0.029181 -0.999548
vn -0.007295 0.029181 -0.999548
vn -0.007295 0.029181 -0.999548
vn -0.007295 0.029181 -0.999548
vn 0.000000 0.653560 0.756875
vn 0.000000 0.653560 0.756875
vn 1.000000 0.000000 0.000000
vn 1.000000 0.000000 0.000000
vn 0.000000 -1.000000 0.000000
vn 0.000000 -1.000000 0.000000
s 1
g outside_corner
usemtl initialShadingGroup
f 1/23/1 12/2/2 9/3/3 3/24/4
s 2
f 3/4/5 9/21/6 10/37/7 5/39/8
s 3
f 7/40/9 11/34/10 12/33/11 1/1/12
s off
f 2/20/13 8/36/14 6/38/15 4/12/16
f 7/40/17 1/1/18 3/4/19 5/39/20
s 2
f 9/21/6 4/12/21 6/38/22 10/37/7
s 3
f 12/19/11 11/32/10 8/36/23 2/20/24
s 1
f 9/3/3 12/2/2 2/9/25 4/22/26
s 4
f 5/6/27 10/5/28 17/27/29 13/29/30
s 5
f 13/14/31 17/13/32 18/25/33 15/30/34
s 6
f 15/16/35 18/31/36 11/8/37 7/7/38
s off
f 8/10/39 16/17/40 14/28/41 6/11/42
f 15/16/43 7/7/44 5/6/45 13/29/46
s 4
f 10/5/28 6/11/47 14/28/48 17/27/29
s 5
f 18/25/33 17/13/32 14/18/49 16/26/50
s 6
f 11/35/37 18/15/36 16/17/51 8/10/52
