# This file uses centimeters as units for non-parametric coordinates.

mtllib Inside_Corner_LP.mtl
g default
v 3.000000 0.000000 -2.000000
v 3.000000 0.000000 -3.000000
v 3.000000 1.000000 -2.000000
v 3.000000 0.468588 -3.000000
v -0.000000 0.468642 -2.999906
v -0.000000 0.000000 -2.999906
v 3.000000 1.000000 -2.541126
v 3.000000 0.000000 -2.541126
v 1.008507 1.000000 -2.000000
v 1.008507 0.000000 -2.000000
v 0.460774 1.000000 -2.543011
v 0.460774 0.000000 -2.543011
v 1.000000 1.000000 0.000000
v -0.000000 0.468588 0.000000
v 1.000000 0.000000 0.000000
v -0.000000 0.000000 0.000000
v 0.458874 1.000000 0.000000
v 0.458874 0.000000 0.000000
v 1.000000 1.000000 -2.008434
v 1.000000 0.000000 -2.008434
vt 0.541594 0.605042
vt 0.358049 0.615763
vt 0.357796 0.811275
vt 0.669956 0.604074
vt 0.447764 0.615879
vt 0.892604 0.987503
vt 0.829540 0.602871
vt 0.948591 0.601974
vt 0.889689 0.602418
vt 0.739416 0.603551
vt 0.447646 0.707493
vt 0.252252 0.615627
vt 0.252000 0.811138
vt 0.832425 0.987956
vt 0.472134 0.605566
vt 0.671883 0.859706
vt 0.543521 0.860674
vt 0.741871 0.929246
vt 0.474590 0.931261
vt 0.951046 0.927669
vt 0.402743 0.400092
vt 0.312725 0.399631
vt 0.313578 0.233278
vt 0.403596 0.233740
vt 0.544497 0.393077
vt 0.475037 0.393601
vt 0.472574 0.066934
vt 0.542554 0.135271
vt 0.889689 0.005379
vt 0.829540 0.005833
vt 0.670915 0.134303
vt 0.672859 0.392109
vt 0.236843 0.310838
vt 0.237243 0.232887
vt 0.739856 0.064918
vt 0.742319 0.391585
vt 0.892592 0.390453
vt 0.832444 0.390906
vt 0.949031 0.063341
vt 0.951494 0.390008
vn 1.000000 0.000000 0.000000
vn 1.000000 0.000000 0.000000
vn 1.000000 0.000000 0.000000
vn 1.000000 0.000000 0.000000
vn 0.000000 1.000000 0.000000
vn 0.000168 0.861462 -0.507821
vn -0.365555 0.855529 -0.366661
vn 0.000000 1.000000 0.000000
vn -0.000031 0.000000 -1.000000
vn -0.000031 0.000000 -1.000000
vn -0.000031 0.000000 -1.000000
vn -0.000031 0.000000 -1.000000
vn 0.000251 0.652709 -0.757609
vn -0.449236 0.773693 -0.446750
vn 0.000000 -1.000000 0.000000
vn 0.000000 -1.000000 0.000000
vn 0.000000 -1.000000 0.000000
vn 0.000000 -1.000000 0.000000
vn 1.000000 0.000000 0.000000
vn 1.000000 0.000000 0.000000
vn 0.000000 -1.000000 0.000000
vn 0.000000 -1.000000 0.000000
vn 0.000000 0.000000 1.000000
vn 0.000000 0.000000 1.000000
vn 0.000000 0.000000 1.000000
vn 0.000000 0.000000 1.000000
vn 0.000000 0.000000 1.000000
vn 0.000000 0.000000 1.000000
vn 0.000000 0.000000 1.000000
vn 0.000000 0.000000 1.000000
vn 0.000000 -1.000000 0.000000
vn 0.000000 -1.000000 0.000000
vn 0.000000 -1.000000 0.000000
vn 1.000000 0.000000 0.000000
vn 1.000000 0.000000 0.000000
vn 1.000000 0.000000 0.000000
vn 1.000000 0.000000 0.000000
vn 0.000000 0.000000 1.000000
vn 0.000000 0.000000 1.000000
vn 0.000000 1.000000 0.000000
vn -0.507087 0.861895 -0.000170
vn 0.000000 1.000000 0.000000
vn -1.000000 0.000000 -0.000000
vn -1.000000 0.000000 -0.000000
vn -1.000000 0.000000 -0.000000
vn -1.000000 0.000000 -0.000000
vn -0.756135 0.654416 -0.000253
vn 0.000000 -1.000000 0.000000
s 1
g inside_corner
usemtl initialShadingGroup
f 1/12/1 8/2/2 7/3/3 3/13/4
s 2
f 3/4/5 7/10/6 11/18/7 9/16/8
s off
f 2/9/9 6/6/10 5/14/11 4/7/12
s 2
f 7/10/6 4/7/13 5/14/14 11/18/7
s 3
f 8/8/15 12/20/16 6/6/17 2/9/18
s 1
f 7/3/3 8/2/2 2/5/19 4/11/20
s 3
f 10/17/21 12/19/16 8/15/15 1/1/22
s off
f 9/16/23 10/17/24 1/1/25 3/4/26
s 4
f 13/21/27 17/22/28 18/23/29 15/24/30
s 3
f 15/25/31 18/26/32 12/27/16 20/28/33
s off
f 15/25/34 20/28/35 19/31/36 13/32/37
s 4
f 18/23/29 17/22/28 14/33/38 16/34/39
s 2
f 19/31/40 11/35/7 17/36/41 13/32/42
s off
f 5/30/43 6/29/44 16/37/45 14/38/46
s 2
f 11/35/7 5/30/14 14/38/47 17/36/41
s 3
f 6/29/17 12/39/16 18/40/32 16/37/48
