# This file uses centimeters as units for non-parametric coordinates.

mtllib Outside_Bend_LP.mtl
g default
v 0.808830 0.000000 -2.218071
v 0.152408 0.000000 -2.978171
v 0.808830 1.000000 -2.218071
v 0.155708 0.468588 -2.981621
v 3.005080 1.000000 -3.000000
v 3.005080 0.468588 -4.027354
v 3.005080 0.000000 -3.000000
v 3.005080 0.000000 -4.027354
v 0.450857 1.000000 -2.626488
v 3.005080 1.000000 -3.568480
v 3.005080 0.000000 -3.568480
v 0.450857 0.000000 -2.626488
v 0.000000 0.000000 0.000000
v -0.994920 0.000000 -0.000000
v 0.000001 1.000000 0.000000
v -0.994920 0.468588 0.000000
v -0.547300 1.000000 0.000000
v -0.547302 0.000000 0.000000
v 1.778670 1.000000 -2.824291
v 1.778670 0.000000 -2.824291
v 1.586653 0.000000 -3.339980
v 1.424046 0.000000 -3.777509
v 1.426356 0.468588 -3.779927
v 1.586653 1.000000 -3.339980
v 2.367928 0.000000 -2.976613
v 2.367928 1.000000 -2.976613
v 2.266736 1.000000 -3.511923
v 2.181402 0.468588 -3.966359
v 2.181402 0.000000 -3.966359
v 2.266736 0.000000 -3.511923
v 1.254631 1.000000 -2.570676
v 1.254631 0.000000 -2.570676
v 0.974544 0.000000 -3.042092
v 0.745455 0.000000 -3.450652
v 0.749856 0.468588 -3.455255
v 0.974544 1.000000 -3.042092
v 0.190845 1.000000 -1.246240
v 0.190845 0.000000 -1.246240
v -0.286900 0.000000 -1.476520
v -0.694366 0.000000 -1.669350
v -0.693245 0.468588 -1.670522
v -0.286900 1.000000 -1.476520
v 0.451399 0.000000 -1.772709
v 0.451399 1.000000 -1.772709
v 0.026979 1.000000 -2.100015
v -0.329392 0.468588 -2.381266
v -0.331560 0.000000 -2.378998
v 0.026979 0.000000 -2.100015
v 0.034634 1.000000 -0.656227
v 0.034633 0.000000 -0.656227
v -0.481157 0.000000 -0.777414
v -0.924072 0.000000 -0.874402
v -0.924072 0.468588 -0.874403
v -0.481158 1.000000 -0.777414
v 0.007918 1.000000 -0.344368
v 0.007918 0.000000 -0.344368
v -0.530695 0.000000 -0.408037
v -0.985319 0.000000 -0.455148
v -0.985320 0.468588 -0.455148
v -0.530696 1.000000 -0.408037
v 0.099272 0.000000 -0.957859
v 0.099273 1.000000 -0.957859
v -0.399553 1.000000 -1.134804
v -0.825922 0.468588 -1.281333
v -0.826580 0.000000 -1.280645
v -0.399552 0.000000 -1.134804
v 0.308523 1.000000 -1.518651
v 0.308523 0.000000 -1.518651
v -0.144326 0.000000 -1.799230
v -0.529124 0.000000 -2.036337
v -0.527235 0.468588 -2.038312
v -0.144326 1.000000 -1.799230
v 0.618509 0.000000 -2.006398
v 0.618509 1.000000 -2.006398
v 0.225790 1.000000 -2.376426
v -0.101238 0.468588 -2.696476
v -0.103968 0.000000 -2.693620
v 0.225791 0.000000 -2.376426
v 1.021267 1.000000 -2.406474
v 1.021267 0.000000 -2.406474
v 0.700892 0.000000 -2.848723
v 0.436061 0.000000 -3.230910
v 0.439924 0.468588 -3.234949
v 0.700892 1.000000 -2.848723
v 1.507599 0.000000 -2.710073
v 1.507599 1.000000 -2.710073
v 1.270347 1.000000 -3.205949
v 1.078593 0.468588 -3.636314
v 1.073615 0.000000 -3.631109
v 1.270347 0.000000 -3.205949
v 2.066113 1.000000 -2.913156
v 2.066113 0.000000 -2.913156
v 1.918457 0.000000 -3.440834
v 1.794161 0.000000 -3.889264
v 1.794161 0.468588 -3.889264
v 1.918457 1.000000 -3.440834
v 2.681799 0.000000 -3.000000
v 2.681799 1.000000 -3.000000
v 2.629883 1.000000 -3.554365
v 2.585988 0.468588 -4.012162
v 2.585988 0.000000 -4.012162
v 2.629883 0.000000 -3.554365
vt 0.541594 0.570280
vt 0.669956 0.569312
vt 0.312725 0.961919
vt 0.402743 0.962380
vt 0.951494 0.952296
vt 0.544497 0.955365
vt 0.892592 0.952741
vt 0.236843 0.873126
vt 0.829540 0.568109
vt 0.948591 0.567211
vt 0.889689 0.567655
vt 0.739416 0.568788
vt 0.313578 0.795566
vt 0.237243 0.795175
vt 0.742319 0.953874
vt 0.832444 0.953194
vt 0.672859 0.954397
vt 0.403596 0.796028
vt 0.475037 0.955889
vt 0.472134 0.570804
vt 0.252252 0.018576
vt 0.358049 0.018713
vt 0.357796 0.214224
vt 0.252000 0.214088
vt 0.669956 0.007024
vt 0.739416 0.006500
vt 0.742319 0.391585
vt 0.672859 0.392109
vt 0.544497 0.393077
vt 0.475037 0.393601
vt 0.472134 0.008515
vt 0.541594 0.007992
vt 0.889689 0.005367
vt 0.892592 0.390453
vt 0.832444 0.390906
vt 0.829540 0.005821
vt 0.948591 0.004923
vt 0.951494 0.390008
vt 0.447764 0.018829
vt 0.447646 0.110443
vt 0.671407 0.761855
vt 0.543046 0.762823
vt 0.473586 0.763346
vt 0.950042 0.759754
vt 0.891141 0.760198
vt 0.830992 0.760651
vt 0.740867 0.761331
vt 0.543771 0.859094
vt 0.672133 0.858126
vt 0.741593 0.857602
vt 0.831718 0.856923
vt 0.891866 0.856469
vt 0.474312 0.859617
vt 0.950768 0.856025
vt 0.670682 0.665583
vt 0.542320 0.666551
vt 0.472860 0.667075
vt 0.949317 0.663483
vt 0.890415 0.663927
vt 0.830266 0.664380
vt 0.740141 0.665060
vt 0.671407 0.199567
vt 0.543046 0.200534
vt 0.473586 0.201058
vt 0.950042 0.197466
vt 0.891141 0.197910
vt 0.830992 0.198363
vt 0.740867 0.199043
vt 0.543771 0.296806
vt 0.672133 0.295838
vt 0.741593 0.295314
vt 0.831718 0.294635
vt 0.891866 0.294181
vt 0.474312 0.297329
vt 0.950768 0.293737
vt 0.670682 0.103295
vt 0.542320 0.104263
vt 0.472860 0.104787
vt 0.949317 0.101195
vt 0.890415 0.101639
vt 0.830266 0.102092
vt 0.740141 0.102772
vt 0.670319 0.055160
vt 0.541957 0.056127
vt 0.472497 0.056651
vt 0.948954 0.053059
vt 0.890052 0.053503
vt 0.829903 0.053957
vt 0.739779 0.054636
vt 0.542683 0.152399
vt 0.671044 0.151431
vt 0.740504 0.150907
vt 0.830629 0.150228
vt 0.890778 0.149774
vt 0.473223 0.152922
vt 0.949679 0.149330
vt 0.671770 0.247702
vt 0.543409 0.248670
vt 0.473949 0.249194
vt 0.950405 0.245602
vt 0.891503 0.246046
vt 0.831355 0.246499
vt 0.741230 0.247179
vt 0.544134 0.344941
vt 0.672496 0.343974
vt 0.741956 0.343450
vt 0.832081 0.342770
vt 0.892229 0.342317
vt 0.474674 0.345465
vt 0.951131 0.341873
vt 0.670319 0.617448
vt 0.541957 0.618415
vt 0.472497 0.618939
vt 0.948954 0.615347
vt 0.890052 0.615791
vt 0.829903 0.616245
vt 0.739779 0.616924
vt 0.542683 0.714687
vt 0.671044 0.713719
vt 0.740504 0.713195
vt 0.830629 0.712516
vt 0.890778 0.712062
vt 0.473223 0.715210
vt 0.949679 0.711618
vt 0.671770 0.809990
vt 0.543409 0.810958
vt 0.473949 0.811482
vt 0.950405 0.807890
vt 0.891503 0.808334
vt 0.831355 0.808787
vt 0.741230 0.809467
vt 0.544134 0.907229
vt 0.672496 0.906262
vt 0.741956 0.905738
vt 0.832081 0.905058
vt 0.892229 0.904605
vt 0.474674 0.907753
vt 0.951131 0.904161
vn 0.000000 1.000000 0.000000
vn 0.000000 1.000000 0.000000
vn -0.314574 0.863587 -0.394032
vn -0.327163 0.870563 -0.367538
vn 1.000000 0.000000 0.000000
vn 1.000000 0.000000 0.000000
vn 1.000000 0.000000 0.000000
vn 1.000000 0.000000 0.000000
vn 0.000000 -1.000000 0.000000
vn 0.000000 -1.000000 0.000000
vn 0.000000 -1.000000 0.000000
vn 0.000000 -1.000000 0.000000
vn -0.665314 -0.000880 -0.746563
vn -0.665314 -0.000880 -0.746563
vn -0.622907 -0.001653 -0.782294
vn -0.623555 -0.001641 -0.781778
vn 0.620355 -0.000000 0.784321
vn 0.663517 -0.000000 0.748161
vn 0.663517 -0.000000 0.748161
vn 0.620355 -0.000000 0.784321
vn -0.467437 0.658454 -0.589865
vn -0.501890 0.655900 -0.563827
vn 1.000000 0.000000 0.000000
vn 1.000000 0.000000 0.000000
vn 0.000000 -1.000000 0.000000
vn 0.000000 -1.000000 0.000000
vn 0.000000 0.000000 1.000000
vn 0.000000 0.000000 1.000000
vn 0.000000 -0.000000 1.000000
vn 0.000000 -0.000000 1.000000
vn 0.000000 1.000000 0.000000
vn 0.000000 1.000000 0.000000
vn -0.507329 0.860734 -0.041890
vn -0.505812 0.862507 -0.015356
vn 0.000000 -1.000000 0.000000
vn 0.000000 -1.000000 0.000000
vn 0.000000 -1.000000 0.000000
vn 0.000000 -1.000000 0.000000
vn -0.999778 -0.000000 -0.021089
vn -0.999778 -0.000000 -0.021089
vn -0.996734 -0.000000 -0.080760
vn -0.996734 -0.000000 -0.080760
vn 0.998610 0.000000 0.052703
vn 0.999736 0.000000 0.022986
vn 0.999736 0.000000 0.022986
vn 0.998610 0.000000 0.052703
vn -0.757922 0.649275 -0.063215
vn -0.761639 0.647589 -0.023122
vn 0.000000 -1.000000 0.000000
vn 0.000000 -1.000000 0.000000
vn 0.000000 -0.000000 1.000000
vn 0.000000 -0.000000 1.000000
vn 0.000000 0.000000 1.000000
vn 0.000000 0.000000 1.000000
vn 0.036681 0.000000 0.999327
vn 0.036681 0.000000 0.999327
vn 0.000000 -1.000000 0.000000
vn 0.000000 -1.000000 0.000000
vn 0.000000 -1.000000 0.000000
vn 0.000000 -1.000000 0.000000
vn 0.000000 -1.000000 0.000000
vn 0.000000 -1.000000 0.000000
vn -0.073849 0.000000 -0.997269
vn -0.036225 0.000000 -0.999344
vn -0.036225 0.000000 -0.999344
vn -0.073849 0.000000 -0.997269
vn -0.037111 0.868052 -0.495085
vn -0.018243 0.869031 -0.494422
vn -0.027908 0.653527 -0.756389
vn -0.057000 0.654489 -0.753920
vn 0.000000 1.000000 0.000000
vn 0.000000 1.000000 0.000000
vn 0.250271 0.000000 0.968176
vn 0.341723 0.000000 0.939801
vn 0.341723 0.000000 0.939801
vn 0.250271 0.000000 0.968176
vn 0.000000 1.000000 0.000000
vn 0.000000 1.000000 0.000000
vn -0.120320 0.867483 -0.482698
vn -0.167226 0.868029 -0.467505
vn -0.182681 0.658753 -0.729844
vn -0.252807 0.661304 -0.706234
vn -0.335096 -0.003132 -0.942179
vn -0.240833 -0.000872 -0.970566
vn -0.240833 -0.000872 -0.970566
vn -0.335488 -0.003143 -0.942039
vn 0.000000 -1.000000 0.000000
vn 0.000000 -1.000000 0.000000
vn 0.000000 -1.000000 0.000000
vn 0.000000 -1.000000 0.000000
vn 0.000000 -1.000000 0.000000
vn 0.000000 -1.000000 0.000000
vn 0.435628 0.000000 0.900127
vn 0.435628 0.000000 0.900127
vn 0.000000 -1.000000 0.000000
vn 0.000000 -1.000000 0.000000
vn 0.000000 -1.000000 0.000000
vn -0.432862 -0.004444 -0.901449
vn -0.433765 -0.004442 -0.901015
vn -0.216331 0.868034 -0.446898
vn -0.325312 0.662744 -0.674495
vn 0.000000 1.000000 0.000000
vn 0.743616 -0.000000 0.668607
vn 0.743616 -0.000000 0.668607
vn 0.779893 -0.000000 0.625913
vn 0.779893 -0.000000 0.625913
vn 0.000000 -1.000000 0.000000
vn 0.000000 -1.000000 0.000000
vn 0.000000 -1.000000 0.000000
vn 0.000000 -1.000000 0.000000
vn 0.000000 -1.000000 0.000000
vn 0.000000 -1.000000 0.000000
vn -0.777692 0.000654 -0.628645
vn -0.742908 0.000277 -0.669394
vn -0.742908 0.000277 -0.669394
vn -0.778051 0.000658 -0.628200
vn -0.398734 0.859329 -0.320257
vn -0.389712 0.851433 -0.350978
vn -0.563349 0.652094 -0.507357
vn -0.589759 0.651028 -0.477857
vn 0.000000 1.000000 0.000000
vn 0.000000 1.000000 0.000000
vn 0.896246 -0.000000 0.443558
vn 0.936903 -0.000000 0.349589
vn 0.936903 -0.000000 0.349589
vn 0.896246 -0.000000 0.443558
vn 0.000000 1.000000 0.000000
vn 0.000000 1.000000 0.000000
vn -0.460671 0.856461 -0.232930
vn -0.481837 0.856091 -0.186926
vn -0.679815 0.646183 -0.346843
vn -0.711142 0.645631 -0.278275
vn -0.930321 0.001353 -0.366744
vn -0.890180 0.001520 -0.455607
vn -0.890341 0.001520 -0.455292
vn -0.930392 0.001352 -0.366563
vn 0.000000 -1.000000 0.000000
vn 0.000000 -1.000000 0.000000
vn 0.000000 -1.000000 0.000000
vn 0.000000 -1.000000 0.000000
vn 0.000000 -1.000000 0.000000
vn 0.000000 -1.000000 0.000000
vn 0.966692 -0.000000 0.255942
vn 0.966692 -0.000000 0.255942
vn 0.000000 -1.000000 0.000000
vn 0.000000 -1.000000 0.000000
vn 0.000000 -1.000000 0.000000
vn -0.960556 0.000833 -0.278087
vn -0.960585 0.000832 -0.277985
vn -0.496552 0.856549 -0.140568
vn -0.733580 0.646570 -0.209301
vn 0.000000 1.000000 0.000000
vn 0.989094 -0.000000 0.147285
vn 0.989094 -0.000000 0.147285
vn 0.000000 -1.000000 0.000000
vn 0.000000 -1.000000 0.000000
vn 0.000000 -1.000000 0.000000
vn -0.981951 0.000254 -0.189138
vn -0.981951 0.000254 -0.189138
vn -0.504529 0.858259 -0.094037
vn -0.747857 0.648868 -0.140285
vn 0.000000 1.000000 0.000000
vn 0.843974 -0.000000 0.536384
vn 0.843974 -0.000000 0.536384
vn 0.000000 -1.000000 0.000000
vn 0.000000 -1.000000 0.000000
vn 0.000000 -1.000000 0.000000
vn -0.839458 0.001261 -0.543424
vn -0.839692 0.001263 -0.543061
vn -0.432896 0.857599 -0.277715
vn -0.639312 0.648075 -0.413860
vn 0.000000 1.000000 0.000000
vn 0.529550 0.000000 0.848279
vn 0.529550 0.000000 0.848279
vn 0.000000 -1.000000 0.000000
vn 0.000000 -1.000000 0.000000
vn 0.000000 -1.000000 0.000000
vn -0.531460 -0.003384 -0.847076
vn -0.532274 -0.003367 -0.846565
vn -0.266475 0.866046 -0.423030
vn -0.397750 0.661679 -0.635591
vn 0.000000 1.000000 0.000000
vn 0.139670 0.000000 0.990198
vn 0.139670 0.000000 0.990198
vn 0.000000 -1.000000 0.000000
vn 0.000000 -1.000000 0.000000
vn 0.000000 -1.000000 0.000000
vn -0.153372 0.000000 -0.988168
vn -0.153372 0.000000 -0.988168
vn -0.077199 0.866980 -0.492327
vn -0.117636 0.656331 -0.745246
vn 0.000000 1.000000 0.000000
s 1
g outside_bend1
usemtl initialShadingGroup
f 3/2/1 79/111/2 84/117/3 9/12/4
s 2
f 5/4/5 7/18/6 11/13/7 10/3/8
s 3
f 80/112/9 1/1/10 12/20/11 81/113/12
s 4
f 2/11/13 4/9/14 83/116/15 82/115/16
s 5
f 79/111/17 3/2/18 1/1/19 80/112/20
s 1
f 9/12/4 84/117/3 83/116/21 4/9/22
s 2
f 11/13/7 8/14/23 6/8/24 10/3/8
s 3
f 12/10/11 2/11/25 82/115/26 81/114/12
s 6
f 13/21/27 15/24/28 17/23/29 18/22/30
s 7
f 15/25/31 55/83/32 60/89/33 17/26/34
s 8
f 56/84/35 13/32/36 18/31/37 57/85/38
s 9
f 14/33/39 16/36/40 59/88/41 58/87/42
s 10
f 55/83/43 15/25/44 13/32/45 56/84/46
s 7
f 17/26/34 60/89/33 59/88/47 16/36/48
s 8
f 18/37/37 14/33/49 58/87/50 57/86/38
s 6
f 17/23/29 16/40/51 14/39/52 18/22/30
s 5
f 7/6/53 5/17/54 98/133/55 97/132/56
s 3
f 7/6/57 97/132/58 102/137/59 11/19/60
f 101/136/61 8/7/62 11/5/60 102/138/59
s 4
f 100/135/63 6/16/64 8/7/65 101/136/66
s 1
f 99/134/67 10/15/68 6/16/69 100/135/70
f 98/133/71 5/17/72 10/15/68 99/134/67
s 5
f 91/125/73 19/41/74 20/42/75 92/126/76
s 1
f 19/41/77 91/125/78 96/131/79 24/47/80
f 24/47/80 96/131/79 95/130/81 23/46/82
s 4
f 23/46/83 95/130/84 94/129/85 22/45/86
s 3
f 22/45/87 94/129/88 93/128/89 21/44/90
f 92/126/91 20/42/92 21/43/90 93/127/89
s 5
f 19/41/74 86/119/93 85/118/94 20/42/75
s 3
f 20/42/92 85/118/95 90/123/96 21/43/90
f 89/122/97 22/45/87 21/44/90 90/124/96
s 4
f 88/121/98 23/46/83 22/45/86 89/122/99
s 1
f 87/120/100 24/47/80 23/46/82 88/121/101
f 86/119/102 19/41/77 24/47/80 87/120/100
s 10
f 1/29/103 3/28/104 74/105/105 73/104/106
s 8
f 1/29/107 73/104/108 78/109/109 12/30/110
f 77/108/111 2/34/112 12/38/110 78/110/109
s 9
f 76/107/113 4/35/114 2/34/115 77/108/116
s 7
f 75/106/117 9/27/118 4/35/119 76/107/120
f 74/105/121 3/28/122 9/27/118 75/106/117
s 10
f 67/97/123 37/62/124 38/63/125 68/98/126
s 7
f 37/62/127 67/97/128 72/103/129 42/68/130
f 42/68/130 72/103/129 71/102/131 41/67/132
s 9
f 41/67/133 71/102/134 70/101/135 40/66/136
s 8
f 40/66/137 70/101/138 69/100/139 39/65/140
f 68/98/141 38/63/142 39/64/140 69/99/139
s 10
f 37/62/124 62/91/143 61/90/144 38/63/125
s 8
f 38/63/142 61/90/145 66/95/146 39/64/140
f 65/94/147 40/66/137 39/65/140 66/96/146
s 9
f 64/93/148 41/67/133 40/66/136 65/94/149
s 7
f 63/92/150 42/68/130 41/67/132 64/93/151
f 62/91/152 37/62/127 42/68/130 63/92/150
s 10
f 49/76/153 55/83/43 56/84/46 50/77/154
s 8
f 50/77/155 56/84/35 57/85/38 51/78/156
f 58/87/50 52/80/157 51/79/156 57/86/38
s 9
f 59/88/41 53/81/158 52/80/159 58/87/42
s 7
f 60/89/33 54/82/160 53/81/161 59/88/47
f 55/83/32 49/76/162 54/82/160 60/89/33
s 10
f 62/91/143 49/76/153 50/77/154 61/90/144
s 7
f 49/76/162 62/91/152 63/92/150 54/82/160
f 54/82/160 63/92/150 64/93/151 53/81/161
s 9
f 53/81/158 64/93/148 65/94/149 52/80/159
s 8
f 52/80/157 65/94/147 66/96/146 51/79/156
f 61/90/145 50/77/155 51/78/156 66/95/146
s 10
f 44/70/163 67/97/123 68/98/126 43/69/164
s 8
f 43/69/165 68/98/141 69/99/139 48/74/166
f 70/101/138 47/73/167 48/75/166 69/100/139
s 9
f 71/102/134 46/72/168 47/73/169 70/101/135
s 7
f 72/103/129 45/71/170 46/72/171 71/102/131
f 67/97/128 44/70/172 45/71/170 72/103/129
s 10
f 74/105/105 44/70/163 43/69/164 73/104/106
s 7
f 44/70/172 74/105/121 75/106/117 45/71/170
f 45/71/170 75/106/117 76/107/120 46/72/171
s 9
f 46/72/168 76/107/113 77/108/116 47/73/169
s 8
f 47/73/167 77/108/111 78/110/109 48/75/166
f 73/104/108 43/69/165 48/74/166 78/109/109
s 5
f 31/55/173 79/111/17 80/112/20 32/56/174
s 3
f 32/56/175 80/112/9 81/113/12 33/57/176
f 82/115/26 34/59/177 33/58/176 81/114/12
s 4
f 83/116/15 35/60/178 34/59/179 82/115/16
s 1
f 84/117/3 36/61/180 35/60/181 83/116/21
f 79/111/2 31/55/182 36/61/180 84/117/3
s 5
f 86/119/93 31/55/173 32/56/174 85/118/94
s 1
f 31/55/182 86/119/102 87/120/100 36/61/180
f 36/61/180 87/120/100 88/121/101 35/60/181
s 4
f 35/60/178 88/121/98 89/122/99 34/59/179
s 3
f 34/59/177 89/122/97 90/124/96 33/58/176
f 85/118/95 32/56/175 33/57/176 90/123/96
s 5
f 26/49/183 91/125/73 92/126/76 25/48/184
s 3
f 25/48/185 92/126/91 93/127/89 30/53/186
f 94/129/88 29/52/187 30/54/186 93/128/89
s 4
f 95/130/84 28/51/188 29/52/189 94/129/85
s 1
f 96/131/79 27/50/190 28/51/191 95/130/81
f 91/125/78 26/49/192 27/50/190 96/131/79
s 5
f 98/133/55 26/49/183 25/48/184 97/132/56
s 1
f 26/49/192 98/133/71 99/134/67 27/50/190
f 27/50/190 99/134/67 100/135/70 28/51/191
s 4
f 28/51/188 100/135/63 101/136/66 29/52/189
s 3
f 29/52/187 101/136/61 102/138/59 30/54/186
f 97/132/58 25/48/185 30/53/186 102/137/59
