# This file uses centimeters as units for non-parametric coordinates.

mtllib Wall_LP.mtl
g default
v -1.000000 0.000000 0.000000
v 0.000000 0.000000 0.000000
v -1.000000 1.000000 0.000000
v 0.000000 0.468588 0.000000
v -1.000000 1.000000 -3.000000
v 0.000000 0.468588 -3.000000
v -1.000000 0.000000 -3.000000
v 0.000000 0.000000 -3.000000
v -0.458874 1.000000 0.000000
v -0.458874 1.000000 -3.000000
v -0.458874 0.000000 -3.000000
v -0.458874 0.000000 0.000000
vt 0.541594 0.007992
vt 0.358049 0.018713
vt 0.357796 0.214224
vt 0.669956 0.007024
vt 0.312725 0.399631
vt 0.402743 0.400092
vt 0.951494 0.390008
vt 0.544497 0.393077
vt 0.447764 0.018829
vt 0.892592 0.390453
vt 0.236843 0.310838
vt 0.829540 0.005821
vt 0.948591 0.004923
vt 0.889689 0.005367
vt 0.739416 0.006500
vt 0.447646 0.110443
vt 0.252252 0.018576
vt 0.252000 0.214088
vt 0.313578 0.233278
vt 0.237243 0.232887
vt 0.742319 0.391585
vt 0.832444 0.390906
vt 0.672859 0.392109
vt 0.403596 0.233740
vt 0.475037 0.393601
vt 0.472134 0.008515
vn 0.000000 0.000000 1.000000
vn 0.000000 0.000000 1.000000
vn 0.000000 0.000000 1.000000
vn 0.000000 0.000000 1.000000
vn 0.000000 1.000000 0.000000
vn 0.469267 0.883056 0.000000
vn 0.469267 0.883056 0.000000
vn 0.000000 1.000000 0.000000
vn 0.000000 0.000000 -1.000000
vn -0.000000 0.000000 -1.000000
vn -0.000000 0.000000 -1.000000
vn 0.000000 0.000000 -1.000000
vn 0.000000 -1.000000 0.000000
vn 0.000000 -1.000000 0.000000
vn 0.000000 -1.000000 0.000000
vn 0.000000 -1.000000 0.000000
vn 1.000000 0.000000 0.000000
vn 1.000000 0.000000 0.000000
vn 1.000000 0.000000 0.000000
vn 1.000000 0.000000 0.000000
vn -1.000000 0.000000 0.000000
vn -1.000000 0.000000 0.000000
vn -1.000000 0.000000 0.000000
vn -1.000000 0.000000 0.000000
vn 0.756875 0.653560 0.000000
vn 0.756875 0.653560 0.000000
vn -0.000000 0.000000 -1.000000
vn -0.000000 0.000000 -1.000000
vn 0.000000 -1.000000 0.000000
vn 0.000000 -1.000000 0.000000
vn 0.000000 0.000000 1.000000
vn 0.000000 0.000000 1.000000
s 1
g Wall
usemtl initialShadingGroup
f 1/17/1 12/2/2 9/3/3 3/18/4
s 2
f 3/4/5 9/15/6 10/21/7 5/23/8
s 3
f 5/6/9 10/5/10 11/19/11 7/24/12
s 4
f 7/8/13 11/25/14 12/26/15 1/1/16
s off
f 2/14/17 8/10/18 6/22/19 4/12/20
f 7/8/21 1/1/22 3/4/23 5/23/24
s 2
f 9/15/6 4/12/25 6/22/26 10/21/7
s 3
f 11/19/11 10/5/10 6/11/27 8/20/28
s 4
f 12/13/15 11/7/14 8/10/29 2/14/30
s 1
f 9/3/3 12/2/2 2/9/31 4/16/32
